<svg width="32" height="32" viewBox="0 0 32 32" fill="none" xmlns="http://www.w3.org/2000/svg">
<g clip-path="url(#clip0_950_7219)">
<path d="M32 16C32 7.16344 24.8366 0 16 0C7.16344 0 0 7.16344 0 16C0 24.8366 7.16344 32 16 32C24.8366 32 32 24.8366 32 16Z" fill="#EDEFF1"/>
<path opacity="0.6" d="M16.097 12.7549L8 16.4349L16.097 21.2219L24.194 16.4359L16.097 12.7549Z" fill="black"/>
<path opacity="0.45" d="M8 16.435L16.097 21.222V12.755V3.00098L8 16.435Z" fill="black"/>
<path opacity="0.8" d="M16.097 3V12.754V21.222L24.194 16.436L16.097 3Z" fill="black"/>
<path opacity="0.45" d="M8 17.9722L16.097 29.3822V22.7552L8 17.9722Z" fill="black"/>
<path opacity="0.8" d="M16.097 22.7552V29.3822L24.2 17.9722L16.097 22.7562V22.7552Z" fill="black"/>
</g>
<defs>
<clipPath id="clip0_950_7219">
<rect width="32" height="32" fill="white"/>
</clipPath>
</defs>
</svg>
