<svg width="32" height="32" viewBox="0 0 32 32" fill="none" xmlns="http://www.w3.org/2000/svg">
<g clip-path="url(#clip0_950_7233)">
<mask id="mask0_950_7233" style="mask-type:luminance" maskUnits="userSpaceOnUse" x="0" y="0" width="32" height="32">
<path d="M32 16C32 7.16344 24.8366 0 16 0C7.16344 0 0 7.16344 0 16C0 24.8366 7.16344 32 16 32C24.8366 32 32 24.8366 32 16Z" fill="white"/>
</mask>
<g mask="url(#mask0_950_7233)">
<path d="M32 16C32 7.16344 24.8366 0 16 0C7.16344 0 0 7.16344 0 16C0 24.8366 7.16344 32 16 32C24.8366 32 32 24.8366 32 16Z" fill="white"/>
<path d="M16 0C7.167 0 0 7.167 0 16C0 24.833 7.167 32 16 32C24.833 32 32 24.833 32 16C32.039 7.167 24.872 0 16 0ZM16.271 16.542L14.605 22.159H23.515C23.786 22.159 23.98 22.353 23.98 22.624V22.74L23.205 25.413C23.1704 25.5391 23.0941 25.6498 22.9887 25.7271C22.8832 25.8045 22.7547 25.8439 22.624 25.839H8.988L11.274 18.052L8.717 18.827L9.298 17.045L11.855 16.27L15.07 5.346C15.148 5.075 15.38 4.92 15.651 4.92H19.099C19.37 4.92 19.564 5.114 19.564 5.385V5.501L16.852 14.721L19.409 13.946L18.867 15.806L16.271 16.542Z" fill="#345D9D"/>
</g>
</g>
<defs>
<clipPath id="clip0_950_7233">
<rect width="32" height="32" fill="white"/>
</clipPath>
</defs>
</svg>
