<svg xmlns="http://www.w3.org/2000/svg" width="32" height="32" fill="none" xmlns:v="https://vecta.io/nano"><rect width="32" height="32" rx="16" fill="#000"/><path d="M24.755 20.615l-2.78 3.167a.65.65 0 0 1-.215.161.62.62 0 0 1-.258.057H8.323a.31.31 0 0 1-.177-.056.34.34 0 0 1-.119-.15.36.36 0 0 1-.022-.195c.011-.066.039-.127.082-.176l2.782-3.167c.06-.069.133-.123.214-.161a.6.6 0 0 1 .257-.057h13.179a.31.31 0 0 1 .177.056.34.34 0 0 1 .119.15.36.36 0 0 1 .022.195.35.35 0 0 1-.082.176zm-2.78-6.378a.65.65 0 0 0-.215-.161.62.62 0 0 0-.258-.057H8.323a.31.31 0 0 0-.177.056.34.34 0 0 0-.119.15.36.36 0 0 0-.022.195.35.35 0 0 0 .082.176l2.782 3.167a.65.65 0 0 0 .214.161.61.61 0 0 0 .257.057h13.179a.31.31 0 0 0 .177-.056.34.34 0 0 0 .119-.15.36.36 0 0 0 .022-.195.35.35 0 0 0-.082-.176l-2.78-3.167zM8.323 11.962h13.18c.088 0 .176-.019.258-.057a.65.65 0 0 0 .215-.161l2.78-3.167a.35.35 0 0 0 .082-.176.36.36 0 0 0-.022-.195.34.34 0 0 0-.119-.15A.31.31 0 0 0 24.52 8H11.34a.62.62 0 0 0-.257.057c-.081.037-.154.092-.214.161l-2.782 3.167c-.043.049-.071.11-.082.176a.36.36 0 0 0 .022.195.34.34 0 0 0 .119.15.31.31 0 0 0 .177.056z" fill="url(#A)"/><defs><linearGradient id="A" x1="9.422" y1="24.381" x2="24.182" y2="8.716" gradientUnits="userSpaceOnUse"><stop offset=".08" stop-color="#9945ff"/><stop offset=".3" stop-color="#8752f3"/><stop offset=".5" stop-color="#5497d5"/><stop offset=".6" stop-color="#43b4ca"/><stop offset=".72" stop-color="#28e0b9"/><stop offset=".97" stop-color="#19fb9b"/></linearGradient></defs></svg>