<svg width="32" height="32" viewBox="0 0 32 32" fill="none" xmlns="http://www.w3.org/2000/svg">
<g clip-path="url(#clip0_950_7249)">
<path d="M32 16C32 7.16344 24.8366 0 16 0C7.16344 0 0 7.16344 0 16C0 24.8366 7.16344 32 16 32C24.8366 32 32 24.8366 32 16Z" fill="#009393"/>
<path fill-rule="evenodd" clip-rule="evenodd" d="M15.8668 17.06C18.5354 17.06 20.7648 16.595 21.3097 15.973C20.8472 15.446 19.1735 15.031 17.0479 14.917V16.23L15.8668 16.26C15.4615 16.26 15.0659 16.25 14.6848 16.23V14.917C12.5602 15.031 10.8855 15.446 10.423 15.973C10.9689 16.595 13.1992 17.06 15.8668 17.06ZM20.6077 10.879V12.687H17.0479V13.941C19.5478 14.075 21.4242 14.626 21.4387 15.286V16.661C21.4251 17.321 19.5488 17.871 17.0479 18.005V21.083H14.6848V18.005C12.1849 17.871 10.3095 17.321 10.295 16.661V15.286C10.3085 14.626 12.1839 14.075 14.6848 13.941V12.687H11.125V10.879H20.6077ZM9.72477 8.00001H22.2203C22.3662 7.99946 22.5098 8.03842 22.6365 8.113C22.7633 8.18758 22.8689 8.29517 22.9427 8.42501L26.583 14.871C26.6749 15.0333 26.7113 15.2227 26.6865 15.4089C26.6618 15.595 26.5771 15.7673 26.4462 15.898L16.4273 25.986C16.1025 26.313 15.5798 26.313 15.2559 25.986L5.24768 15.913C5.1139 15.7793 5.0286 15.6023 5.00601 15.4116C4.98342 15.2209 5.02491 15.028 5.12356 14.865L9.01496 8.40501C9.16623 8.15401 9.43581 8.00001 9.72574 8.00001H9.72477Z" fill="white"/>
</g>
<defs>
<clipPath id="clip0_950_7249">
<rect width="32" height="32" fill="white"/>
</clipPath>
</defs>
</svg>
